<svg width="154" height="38" viewBox="0 0 154 38" fill="none" xmlns="http://www.w3.org/2000/svg">
<g clip-path="url(#clip0_420_426)">
<g clip-path="url(#clip1_420_426)">
<path d="M14.2188 14.375C14.0938 12.8438 13.0938 11.9688 11.0625 11.9688C9.09375 11.9688 8.21875 12.7188 8.1875 13.7812C8.15625 14.9375 9.21875 15.5938 11.3125 16.0312L13.1875 16.4688C18.0625 17.5 20.2188 19.875 20.25 23.3438C20.2188 27.7812 16.8125 30.2812 11.0938 30.2812C5.25 30.2812 1.46875 27.7188 1.40625 22.1562H7.09375C7.1875 24.25 8.65625 25.375 11 25.375C13.0312 25.375 14.125 24.5312 14.1562 23.3438C14.125 22.25 13.2188 21.625 10.6875 21.0625L8.40625 20.5625C4.4375 19.6875 2 17.7188 2 14.2188C1.96875 9.9375 5.75 7.0625 11.0625 7.0625C16.5 7.0625 19.9062 9.96875 19.9375 14.375H14.2188ZM22.6875 30V7.375H38.8438V12.1875H28.625V16.2812H38V21.0938H28.625V25.1875H38.8125V30H22.6875ZM41.9688 30V7.375H58.125V12.1875H47.9062V16.2812H57.2812V21.0938H47.9062V25.1875H58.0938V30H41.9688Z" fill="#67748E"/>
</g>
<g clip-path="url(#clip2_420_426)">
<path d="M68.3125 30.3438C66.625 30.3438 65.25 29 65.2812 27.3125C65.25 25.6562 66.625 24.3125 68.3125 24.3125C69.9062 24.3125 71.3438 25.6562 71.3438 27.3125C71.3438 29 69.9062 30.3438 68.3125 30.3438ZM68.3125 18.875C66.625 18.875 65.25 17.5312 65.2812 15.8438C65.25 14.1875 66.625 12.8438 68.3125 12.8438C69.9062 12.8438 71.3438 14.1875 71.3438 15.8438C71.3438 17.5312 69.9062 18.875 68.3125 18.875Z" fill="#67748E"/>
</g>
<g clip-path="url(#clip3_420_426)">
<path d="M90.2188 14.375C90.0938 12.8438 89.0938 11.9688 87.0625 11.9688C85.0938 11.9688 84.2188 12.7188 84.1875 13.7812C84.1562 14.9375 85.2188 15.5938 87.3125 16.0312L89.1875 16.4688C94.0625 17.5 96.2188 19.875 96.25 23.3438C96.2188 27.7812 92.8125 30.2812 87.0938 30.2812C81.25 30.2812 77.4688 27.7188 77.4062 22.1562H83.0938C83.1875 24.25 84.6562 25.375 87 25.375C89.0312 25.375 90.125 24.5312 90.1562 23.3438C90.125 22.25 89.2188 21.625 86.6875 21.0625L84.4062 20.5625C80.4375 19.6875 78 17.7188 78 14.2188C77.9688 9.9375 81.75 7.0625 87.0625 7.0625C92.5 7.0625 95.9062 9.96875 95.9375 14.375H90.2188ZM104.625 7.375V30H98.6875V7.375H104.625ZM122.406 14.8125C122 13.1875 120.656 12.25 118.656 12.25C115.5 12.25 113.656 14.625 113.656 18.6562C113.656 22.7188 115.375 25.125 118.625 25.125C121.453 25.125 122.891 23.7969 122.938 21.6875H118.75V17.4375H128.688V20.5312C128.688 26.6875 124.469 30.3125 118.562 30.3125C112 30.3125 107.531 25.875 107.531 18.7188C107.531 11.2812 112.438 7.0625 118.531 7.0625C123.844 7.0625 127.938 10.2812 128.438 14.8125H122.406ZM151.125 7.375V30H146.156L137.75 17.7812H137.594V30H131.656V7.375H136.719L145 19.5312H145.188V7.375H151.125Z" fill="#5E72E4"/>
</g>
</g>
<defs>
<clipPath id="clip0_420_426">
<rect width="153" height="38" fill="white" transform="translate(0.5)"/>
</clipPath>
<clipPath id="clip1_420_426">
<rect width="60" height="38" fill="white" transform="translate(0.5)"/>
</clipPath>
<clipPath id="clip2_420_426">
<rect width="10" height="38" fill="white" transform="translate(63.5)"/>
</clipPath>
<clipPath id="clip3_420_426">
<rect width="77" height="38" fill="white" transform="translate(76.5)"/>
</clipPath>
</defs>
</svg>
